<svg width="30" height="30" viewBox="0 0 30 30" fill="none" xmlns="http://www.w3.org/2000/svg">
<path fill-rule="evenodd" clip-rule="evenodd" d="M3.75 6.25C3.75 5.58696 4.01339 4.95107 4.48223 4.48223C4.95107 4.01339 5.58696 3.75 6.25 3.75H23.75C24.413 3.75 25.0489 4.01339 25.5178 4.48223C25.9866 4.95107 26.25 5.58696 26.25 6.25V23.75C26.25 24.413 25.9866 25.0489 25.5178 25.5178C25.0489 25.9866 24.413 26.25 23.75 26.25H6.25C5.58696 26.25 4.95107 25.9866 4.48223 25.5178C4.01339 25.0489 3.75 24.413 3.75 23.75V6.25ZM10.58 10.5813C10.6961 10.465 10.834 10.3728 10.9857 10.3099C11.1374 10.247 11.3001 10.2146 11.4644 10.2146C11.6286 10.2146 11.7913 10.247 11.9431 10.3099C12.0948 10.3728 12.2327 10.465 12.3487 10.5813L14.9987 13.2312L17.6513 10.5813C17.7673 10.4651 17.9051 10.373 18.0568 10.3101C18.2084 10.2472 18.371 10.2148 18.5352 10.2147C18.6994 10.2147 18.862 10.247 19.0137 10.3097C19.1654 10.3725 19.3032 10.4646 19.4194 10.5806C19.5355 10.6967 19.6277 10.8345 19.6905 10.9861C19.7534 11.1378 19.7858 11.3004 19.7859 11.4646C19.7859 11.6287 19.7537 11.7913 19.6909 11.943C19.6281 12.0948 19.5361 12.2326 19.42 12.3487L16.7675 15L19.42 17.6513C19.6546 17.8858 19.7863 18.2039 19.7863 18.5356C19.7863 18.8673 19.6546 19.1854 19.42 19.42C19.1854 19.6546 18.8673 19.7863 18.5356 19.7863C18.2039 19.7863 17.8858 19.6546 17.6513 19.42L15 16.7675L12.3487 19.42C12.1142 19.6546 11.7961 19.7863 11.4644 19.7863C11.1327 19.7863 10.8146 19.6546 10.58 19.42C10.3454 19.1854 10.2137 18.8673 10.2137 18.5356C10.2137 18.2039 10.3454 17.8858 10.58 17.6513L13.2325 15L10.58 12.3487C10.3457 12.1143 10.214 11.7965 10.214 11.465C10.214 11.1335 10.3457 10.8157 10.58 10.5813Z" fill="#CE292B"/>
</svg>
