<svg width="30" height="30" viewBox="0 0 30 30" fill="none" xmlns="http://www.w3.org/2000/svg">
<path d="M9.75195 2.50012H20.252C24.252 2.50012 27.502 5.75012 27.502 9.75012V20.2501C27.502 22.1729 26.7381 24.017 25.3785 25.3766C24.0188 26.7363 22.1748 27.5001 20.252 27.5001H9.75195C5.75195 27.5001 2.50195 24.2501 2.50195 20.2501V9.75012C2.50195 7.8273 3.26579 5.98324 4.62543 4.6236C5.98507 3.26396 7.82913 2.50012 9.75195 2.50012ZM9.50195 5.00012C8.30848 5.00012 7.16389 5.47423 6.31997 6.31814C5.47606 7.16206 5.00195 8.30665 5.00195 9.50012V20.5001C5.00195 22.9876 7.01445 25.0001 9.50195 25.0001H20.502C21.6954 25.0001 22.84 24.526 23.6839 23.6821C24.5278 22.8382 25.002 21.6936 25.002 20.5001V9.50012C25.002 7.01262 22.9895 5.00012 20.502 5.00012H9.50195ZM21.5645 6.87512C21.9789 6.87512 22.3763 7.03974 22.6693 7.33277C22.9623 7.62579 23.127 8.02322 23.127 8.43762C23.127 8.85202 22.9623 9.24945 22.6693 9.54248C22.3763 9.8355 21.9789 10.0001 21.5645 10.0001C21.1501 10.0001 20.7526 9.8355 20.4596 9.54248C20.1666 9.24945 20.002 8.85202 20.002 8.43762C20.002 8.02322 20.1666 7.62579 20.4596 7.33277C20.7526 7.03974 21.1501 6.87512 21.5645 6.87512ZM15.002 8.75012C16.6596 8.75012 18.2493 9.4086 19.4214 10.5807C20.5935 11.7528 21.252 13.3425 21.252 15.0001C21.252 16.6577 20.5935 18.2474 19.4214 19.4195C18.2493 20.5916 16.6596 21.2501 15.002 21.2501C13.3443 21.2501 11.7546 20.5916 10.5825 19.4195C9.41043 18.2474 8.75195 16.6577 8.75195 15.0001C8.75195 13.3425 9.41043 11.7528 10.5825 10.5807C11.7546 9.4086 13.3443 8.75012 15.002 8.75012ZM15.002 11.2501C14.0074 11.2501 13.0536 11.6452 12.3503 12.3485C11.647 13.0517 11.252 14.0056 11.252 15.0001C11.252 15.9947 11.647 16.9485 12.3503 17.6518C13.0536 18.355 14.0074 18.7501 15.002 18.7501C15.9965 18.7501 16.9503 18.355 17.6536 17.6518C18.3569 16.9485 18.752 15.9947 18.752 15.0001C18.752 14.0056 18.3569 13.0517 17.6536 12.3485C16.9503 11.6452 15.9965 11.2501 15.002 11.2501Z" fill="#1E2F55"/>
</svg>
