<svg width="36" height="32" viewBox="0 0 36 32" fill="none" xmlns="http://www.w3.org/2000/svg">
<path d="M15.1999 9.3335H20.7999C22.9333 9.3335 24.6666 11.0668 24.6666 13.2002V18.8002C24.6666 19.8257 24.2592 20.8092 23.5341 21.5343C22.8089 22.2594 21.8254 22.6668 20.7999 22.6668H15.1999C13.0666 22.6668 11.3333 20.9335 11.3333 18.8002V13.2002C11.3333 12.1747 11.7406 11.1912 12.4658 10.466C13.1909 9.74088 14.1744 9.3335 15.1999 9.3335ZM15.0666 10.6668C14.4301 10.6668 13.8196 10.9197 13.3695 11.3698C12.9194 11.8199 12.6666 12.4303 12.6666 13.0668V18.9335C12.6666 20.2602 13.7399 21.3335 15.0666 21.3335H20.9333C21.5698 21.3335 22.1802 21.0806 22.6303 20.6306C23.0804 20.1805 23.3333 19.57 23.3333 18.9335V13.0668C23.3333 11.7402 22.2599 10.6668 20.9333 10.6668H15.0666ZM21.4999 11.6668C21.7209 11.6668 21.9329 11.7546 22.0892 11.9109C22.2455 12.0672 22.3333 12.2791 22.3333 12.5002C22.3333 12.7212 22.2455 12.9331 22.0892 13.0894C21.9329 13.2457 21.7209 13.3335 21.4999 13.3335C21.2789 13.3335 21.0669 13.2457 20.9107 13.0894C20.7544 12.9331 20.6666 12.7212 20.6666 12.5002C20.6666 12.2791 20.7544 12.0672 20.9107 11.9109C21.0669 11.7546 21.2789 11.6668 21.4999 11.6668ZM17.9999 12.6668C18.884 12.6668 19.7318 13.018 20.3569 13.6431C20.9821 14.2683 21.3333 15.1161 21.3333 16.0002C21.3333 16.8842 20.9821 17.7321 20.3569 18.3572C19.7318 18.9823 18.884 19.3335 17.9999 19.3335C17.1159 19.3335 16.268 18.9823 15.6429 18.3572C15.0178 17.7321 14.6666 16.8842 14.6666 16.0002C14.6666 15.1161 15.0178 14.2683 15.6429 13.6431C16.268 13.018 17.1159 12.6668 17.9999 12.6668ZM17.9999 14.0002C17.4695 14.0002 16.9608 14.2109 16.5857 14.5859C16.2106 14.961 15.9999 15.4697 15.9999 16.0002C15.9999 16.5306 16.2106 17.0393 16.5857 17.4144C16.9608 17.7894 17.4695 18.0002 17.9999 18.0002C18.5304 18.0002 19.0391 17.7894 19.4141 17.4144C19.7892 17.0393 19.9999 16.5306 19.9999 16.0002C19.9999 15.4697 19.7892 14.961 19.4141 14.5859C19.0391 14.2109 18.5304 14.0002 17.9999 14.0002Z" fill="white"/>
</svg>
