<svg width="36" height="32" viewBox="0 0 36 32" fill="none" xmlns="http://www.w3.org/2000/svg">
<path d="M20.6667 13.3335C21.7276 13.3335 22.745 13.7549 23.4952 14.5051C24.2453 15.2552 24.6667 16.2726 24.6667 17.3335V22.0002H22.0001V17.3335C22.0001 16.9799 21.8596 16.6407 21.6096 16.3907C21.3595 16.1406 21.0204 16.0002 20.6667 16.0002C20.3131 16.0002 19.974 16.1406 19.7239 16.3907C19.4739 16.6407 19.3334 16.9799 19.3334 17.3335V22.0002H16.6667V17.3335C16.6667 16.2726 17.0882 15.2552 17.8383 14.5051C18.5885 13.7549 19.6059 13.3335 20.6667 13.3335Z" stroke="white" stroke-width="1.33333" stroke-linecap="round" stroke-linejoin="round"/>
<path d="M13.9999 14H11.3333V22H13.9999V14Z" stroke="white" stroke-width="1.33333" stroke-linecap="round" stroke-linejoin="round"/>
<path d="M12.6666 12.0002C13.403 12.0002 13.9999 11.4032 13.9999 10.6668C13.9999 9.93045 13.403 9.3335 12.6666 9.3335C11.9302 9.3335 11.3333 9.93045 11.3333 10.6668C11.3333 11.4032 11.9302 12.0002 12.6666 12.0002Z" stroke="white" stroke-width="1.33333" stroke-linecap="round" stroke-linejoin="round"/>
</svg>
