<svg width="30" height="30" viewBox="0 0 30 30" fill="none" xmlns="http://www.w3.org/2000/svg">
<path d="M19.998 10.0001C21.9872 10.0001 23.8948 10.7903 25.3013 12.1968C26.7079 13.6033 27.498 15.511 27.498 17.5001V26.2501H22.498V17.5001C22.498 16.8371 22.2347 16.2012 21.7658 15.7324C21.297 15.2635 20.6611 15.0001 19.998 15.0001C19.335 15.0001 18.6991 15.2635 18.2303 15.7324C17.7614 16.2012 17.498 16.8371 17.498 17.5001V26.2501H12.498V17.5001C12.498 15.511 13.2882 13.6033 14.6947 12.1968C16.1013 10.7903 18.0089 10.0001 19.998 10.0001Z" stroke="#1E2F55" stroke-width="2.5" stroke-linecap="round" stroke-linejoin="round"/>
<path d="M7.50195 11.25H2.50195V26.25H7.50195V11.25Z" stroke="#1E2F55" stroke-width="2.5" stroke-linecap="round" stroke-linejoin="round"/>
<path d="M5.00195 7.50012C6.38267 7.50012 7.50195 6.38083 7.50195 5.00012C7.50195 3.61941 6.38267 2.50012 5.00195 2.50012C3.62124 2.50012 2.50195 3.61941 2.50195 5.00012C2.50195 6.38083 3.62124 7.50012 5.00195 7.50012Z" stroke="#1E2F55" stroke-width="2.5" stroke-linecap="round" stroke-linejoin="round"/>
</svg>
