<svg width="30" height="30" viewBox="0 0 30 30" fill="none" xmlns="http://www.w3.org/2000/svg">
<path d="M25 12.4999C25 18.7411 18.0762 25.2411 15.7512 27.2486C15.5347 27.4115 15.271 27.4996 15 27.4996C14.729 27.4996 14.4653 27.4115 14.2488 27.2486C11.9238 25.2411 5 18.7411 5 12.4999C5 9.84771 6.05357 7.30417 7.92893 5.42881C9.8043 3.55345 12.3478 2.49988 15 2.49988C17.6522 2.49988 20.1957 3.55345 22.0711 5.42881C23.9464 7.30417 25 9.84771 25 12.4999Z" stroke="#1E2F55" stroke-width="2.5" stroke-linecap="round" stroke-linejoin="round"/>
<path d="M15 16.25C17.0711 16.25 18.75 14.5711 18.75 12.5C18.75 10.4289 17.0711 8.75 15 8.75C12.9289 8.75 11.25 10.4289 11.25 12.5C11.25 14.5711 12.9289 16.25 15 16.25Z" stroke="#1E2F55" stroke-width="2.5" stroke-linecap="round" stroke-linejoin="round"/>
</svg>
