<svg width="30" height="30" viewBox="0 0 30 30" fill="none" xmlns="http://www.w3.org/2000/svg">
<path d="M17.29 20.7099C17.5482 20.8284 17.839 20.8555 18.1146 20.7867C18.3902 20.7178 18.6342 20.5572 18.8063 20.3311L19.25 19.7499C19.4829 19.4394 19.7848 19.1874 20.132 19.0138C20.4791 18.8402 20.8619 18.7499 21.25 18.7499H25C25.663 18.7499 26.2989 19.0133 26.7678 19.4821C27.2366 19.951 27.5 20.5868 27.5 21.2499V24.9999C27.5 25.6629 27.2366 26.2988 26.7678 26.7676C26.2989 27.2365 25.663 27.4999 25 27.4999C19.0326 27.4999 13.3097 25.1293 9.0901 20.9098C4.87053 16.6902 2.5 10.9672 2.5 4.99988C2.5 4.33684 2.76339 3.70095 3.23223 3.23211C3.70107 2.76327 4.33696 2.49988 5 2.49988H8.75C9.41304 2.49988 10.0489 2.76327 10.5178 3.23211C10.9866 3.70095 11.25 4.33684 11.25 4.99988V8.74988C11.25 9.13799 11.1596 9.52077 10.9861 9.86791C10.8125 10.2151 10.5605 10.517 10.25 10.7499L9.665 11.1886C9.43552 11.3638 9.27377 11.6131 9.20724 11.8941C9.1407 12.175 9.17348 12.4703 9.3 12.7299C11.0084 16.1997 13.818 19.0059 17.29 20.7099Z" stroke="#1E2F55" stroke-width="2.5" stroke-linecap="round" stroke-linejoin="round"/>
</svg>
