<svg width="32" height="32" viewBox="0 0 32 32" fill="none" xmlns="http://www.w3.org/2000/svg">
<path d="M20.636 17.1868L22.656 28.5548C22.6787 28.6886 22.6599 28.8262 22.6022 28.9491C22.5445 29.072 22.4507 29.1744 22.3333 29.2425C22.2159 29.3106 22.0804 29.3413 21.9451 29.3304C21.8098 29.3195 21.681 29.2675 21.576 29.1814L16.8027 25.5988C16.5723 25.4266 16.2923 25.3336 16.0047 25.3336C15.7171 25.3336 15.4371 25.4266 15.2067 25.5988L10.4254 29.1801C10.3205 29.266 10.1919 29.3179 10.0567 29.3288C9.92154 29.3398 9.78626 29.3092 9.66892 29.2413C9.55157 29.1733 9.45774 29.0712 9.39993 28.9485C9.34212 28.8259 9.32308 28.6885 9.34537 28.5548L11.364 17.1868" stroke="white" stroke-width="2.66667" stroke-linecap="round" stroke-linejoin="round"/>
<path d="M16 18.6667C20.4183 18.6667 24 15.085 24 10.6667C24 6.24847 20.4183 2.66675 16 2.66675C11.5817 2.66675 8 6.24847 8 10.6667C8 15.085 11.5817 18.6667 16 18.6667Z" stroke="white" stroke-width="2.66667" stroke-linecap="round" stroke-linejoin="round"/>
</svg>
