<svg width="32" height="32" viewBox="0 0 32 32" fill="none" xmlns="http://www.w3.org/2000/svg">
<path d="M14.6666 26.6667C12.3254 26.6738 10.067 25.8007 8.33931 24.2206C6.61166 22.6405 5.54097 20.4688 5.3396 18.1362C5.13822 15.8036 5.82087 13.4806 7.25215 11.6277C8.68343 9.77491 10.7588 8.52768 13.0666 8.13341C20.6666 6.66675 22.6666 5.97341 25.3333 2.66675C26.6666 5.33341 28 8.24008 28 13.3334C28 20.6667 21.6266 26.6667 14.6666 26.6667Z" stroke="white" stroke-width="2.66667" stroke-linecap="round" stroke-linejoin="round"/>
<path d="M2.66669 28C2.66669 24 5.13335 20.8533 9.44002 20C12.6667 19.36 16 17.3333 17.3334 16" stroke="white" stroke-width="2.66667" stroke-linecap="round" stroke-linejoin="round"/>
</svg>
