<svg width="36" height="32" viewBox="0 0 36 32" fill="none" xmlns="http://www.w3.org/2000/svg">
<path d="M17.9999 10.6665C18.5699 10.6665 19.1546 10.6812 19.7213 10.7052L20.3906 10.7372L21.0313 10.7752L21.6313 10.8158L22.1793 10.8585C22.774 10.9038 23.3338 11.1575 23.7599 11.5749C24.186 11.9924 24.4511 12.5468 24.5086 13.1405L24.5353 13.4238L24.5853 14.0305C24.6319 14.6592 24.6666 15.3445 24.6666 15.9998C24.6666 16.6552 24.6319 17.3405 24.5853 17.9692L24.5353 18.5758L24.5086 18.8592C24.4511 19.453 24.1859 20.0075 23.7596 20.425C23.3334 20.8424 22.7735 21.0961 22.1786 21.1412L21.6319 21.1832L21.0319 21.2245L20.3906 21.2625L19.7213 21.2945C19.1478 21.3193 18.5739 21.3322 17.9999 21.3332C17.4259 21.3322 16.852 21.3193 16.2786 21.2945L15.6093 21.2625L14.9686 21.2245L14.3686 21.1832L13.8206 21.1412C13.2258 21.0959 12.6661 20.8422 12.2399 20.4248C11.8138 20.0073 11.5487 19.4529 11.4913 18.8592L11.4646 18.5758L11.4146 17.9692C11.3638 17.3139 11.3367 16.657 11.3333 15.9998C11.3333 15.3445 11.3679 14.6592 11.4146 14.0305L11.4646 13.4238L11.4913 13.1405C11.5487 12.5469 11.8137 11.9925 12.2397 11.5751C12.6657 11.1577 13.2252 10.9039 13.8199 10.8585L14.3673 10.8158L14.9673 10.7752L15.6086 10.7372L16.2779 10.7052C16.8516 10.6803 17.4257 10.6674 17.9999 10.6665ZM17.9999 11.9998C17.4499 11.9998 16.8839 12.0145 16.3333 12.0372L15.6813 12.0685L15.0553 12.1052L14.4673 12.1452L13.9286 12.1872C13.6454 12.207 13.3784 12.3266 13.175 12.5247C12.9717 12.7228 12.8451 12.9866 12.8179 13.2692C12.7399 14.0752 12.6666 15.0785 12.6666 15.9998C12.6666 16.9212 12.7399 17.9245 12.8179 18.7305C12.8746 19.3118 13.3359 19.7638 13.9286 19.8125L14.4673 19.8538L15.0553 19.8938L15.6813 19.9312L16.3333 19.9625C16.8839 19.9852 17.4499 19.9998 17.9999 19.9998C18.5499 19.9998 19.1159 19.9852 19.6666 19.9625L20.3186 19.9312L20.9446 19.8945L21.5326 19.8545L22.0713 19.8125C22.3545 19.7927 22.6215 19.6731 22.8248 19.475C23.0282 19.2769 23.1547 19.0131 23.1819 18.7305C23.2599 17.9245 23.3333 16.9212 23.3333 15.9998C23.3333 15.0785 23.2599 14.0752 23.1819 13.2692C23.1547 12.9866 23.0282 12.7228 22.8248 12.5247C22.6215 12.3266 22.3545 12.207 22.0713 12.1872L21.5326 12.1458L20.9446 12.1058L20.3186 12.0685L19.6666 12.0372C19.1113 12.0133 18.5557 12.0009 17.9999 11.9998ZM16.6666 14.3832C16.6665 14.318 16.6824 14.2538 16.7128 14.1962C16.7432 14.1386 16.7873 14.0893 16.8411 14.0525C16.8949 14.0158 16.9569 13.9928 17.0216 13.9854C17.0864 13.9781 17.1519 13.9867 17.2126 14.0105L17.2666 14.0372L20.0666 15.6532C20.1223 15.6853 20.1695 15.7305 20.2041 15.7848C20.2387 15.8391 20.2596 15.9009 20.2652 15.9651C20.2707 16.0292 20.2607 16.0937 20.236 16.1532C20.2113 16.2126 20.1726 16.2652 20.1233 16.3065L20.0666 16.3465L17.2666 17.9632C17.2102 17.9958 17.1466 18.0142 17.0814 18.0167C17.0163 18.0192 16.9515 18.0058 16.8928 17.9775C16.834 17.9492 16.783 17.907 16.7443 17.8546C16.7056 17.8021 16.6803 17.741 16.6706 17.6765L16.6666 17.6165V14.3832Z" fill="white"/>
</svg>
