<svg width="30" height="30" viewBox="0 0 30 30" fill="none" xmlns="http://www.w3.org/2000/svg">
<path d="M15.002 4.99988C16.0707 4.99988 17.167 5.02738 18.2295 5.07238L19.4845 5.13238L20.6857 5.20363L21.8107 5.27988L22.8382 5.35988C23.9534 5.44474 25.003 5.92042 25.8019 6.70313C26.6008 7.48584 27.098 8.52537 27.2057 9.63863L27.2557 10.1699L27.3495 11.3074C27.437 12.4861 27.502 13.7711 27.502 14.9999C27.502 16.2286 27.437 17.5136 27.3495 18.6924L27.2557 19.8299L27.2057 20.3611C27.0979 21.4746 26.6006 22.5143 25.8014 23.297C25.0022 24.0797 23.9524 24.5553 22.837 24.6399L21.812 24.7186L20.687 24.7961L19.4845 24.8674L18.2295 24.9274C17.1542 24.974 16.0782 24.9981 15.002 24.9999C13.9257 24.9981 12.8497 24.974 11.7745 24.9274L10.5195 24.8674L9.3182 24.7961L8.1932 24.7186L7.1657 24.6399C6.05047 24.555 5.00095 24.0793 4.20201 23.2966C3.40306 22.5139 2.90594 21.4744 2.7982 20.3611L2.7482 19.8299L2.65445 18.6924C2.55924 17.4638 2.50838 16.2321 2.50195 14.9999C2.50195 13.7711 2.56695 12.4861 2.65445 11.3074L2.7482 10.1699L2.7982 9.63863C2.9059 8.52557 3.40284 7.48619 4.20153 6.70351C5.00022 5.92083 6.04944 5.44502 7.16445 5.35988L8.1907 5.27988L9.3157 5.20363L10.5182 5.13238L11.7732 5.07238C12.8488 5.02579 13.9253 5.00161 15.002 4.99988ZM15.002 7.49988C13.9707 7.49988 12.9095 7.52738 11.877 7.56988L10.6545 7.62863L9.4807 7.69738L8.3782 7.77238L7.3682 7.85113C6.8372 7.8883 6.33657 8.11254 5.95528 8.48398C5.57399 8.85543 5.33675 9.35002 5.2857 9.87988C5.13945 11.3911 5.00195 13.2724 5.00195 14.9999C5.00195 16.7274 5.13945 18.6086 5.2857 20.1199C5.39195 21.2099 6.25695 22.0574 7.3682 22.1486L8.3782 22.2261L9.4807 22.3011L10.6545 22.3711L11.877 22.4299C12.9095 22.4724 13.9707 22.4999 15.002 22.4999C16.0332 22.4999 17.0945 22.4724 18.127 22.4299L19.3495 22.3711L20.5232 22.3024L21.6257 22.2274L22.6357 22.1486C23.1667 22.1115 23.6673 21.8872 24.0486 21.5158C24.4299 21.1443 24.6672 20.6497 24.7182 20.1199C24.8645 18.6086 25.002 16.7274 25.002 14.9999C25.002 13.2724 24.8645 11.3911 24.7182 9.87988C24.6672 9.35002 24.4299 8.85543 24.0486 8.48398C23.6673 8.11254 23.1667 7.8883 22.6357 7.85113L21.6257 7.77363L20.5232 7.69863L19.3495 7.62863L18.127 7.56988C17.0859 7.52519 16.044 7.50186 15.002 7.49988ZM12.502 11.9686C12.5019 11.8465 12.5316 11.7261 12.5887 11.6181C12.6457 11.51 12.7282 11.4175 12.8291 11.3487C12.9301 11.2798 13.0463 11.2366 13.1677 11.2229C13.289 11.2092 13.412 11.2253 13.5257 11.2699L13.627 11.3199L18.877 14.3499C18.9815 14.4102 19.0699 14.4949 19.1348 14.5967C19.1996 14.6985 19.2389 14.8144 19.2493 14.9347C19.2598 15.0549 19.241 15.1759 19.1947 15.2874C19.1483 15.3988 19.0758 15.4975 18.9832 15.5749L18.877 15.6499L13.627 18.6811C13.5212 18.7424 13.402 18.7769 13.2798 18.7815C13.1577 18.7862 13.0362 18.761 12.926 18.708C12.8159 18.655 12.7203 18.5759 12.6477 18.4775C12.5751 18.3791 12.5276 18.2645 12.5095 18.1436L12.502 18.0311V11.9686Z" fill="#1E2F55"/>
</svg>
